<svg width="35" height="36" viewBox="0 0 35 36" fill="none" xmlns="http://www.w3.org/2000/svg">
<g clip-path="url(#clip0_62_2756)">
<path d="M34.4501 22.259C32.1128 31.6341 22.6174 37.3396 13.2412 35.0017C3.86889 32.6645 -1.83661 23.1684 0.501669 13.7941C2.83789 4.41798 12.3333 -1.28794 21.7066 1.04931C31.0822 3.38656 36.7873 12.8836 34.4498 22.2592L34.45 22.259H34.4501Z" fill="#F7931A"/>
<path d="M25.2168 15.5067C25.5651 13.1779 23.7921 11.926 21.3676 11.0909L22.1541 7.93625L20.2338 7.45775L19.4681 10.5293C18.9633 10.4034 18.4448 10.2848 17.9295 10.1672L18.7008 7.0753L16.7816 6.5968L15.9947 9.75043C15.5769 9.65531 15.1666 9.56131 14.7685 9.46225L14.7707 9.45233L12.1225 8.79103L11.6117 10.8421C11.6117 10.8421 13.0364 11.1687 13.0064 11.1888C13.784 11.3828 13.9246 11.8976 13.9013 12.3056L13.0054 15.8995C13.0589 15.9131 13.1284 15.9328 13.205 15.9636C13.1409 15.9477 13.0728 15.9303 13.002 15.9134L11.7462 20.9479C11.6512 21.1842 11.41 21.5387 10.8663 21.4041C10.8855 21.432 9.47056 21.0558 9.47056 21.0558L8.51715 23.2539L11.0162 23.8769C11.4811 23.9935 11.9366 24.1155 12.3853 24.2302L11.5906 27.421L13.5087 27.8995L14.2957 24.7426C14.8197 24.8848 15.3282 25.016 15.8261 25.1397L15.0418 28.2818L16.9622 28.7603L17.7568 25.5755C21.0313 26.1952 23.4936 25.9453 24.5299 22.9835C25.365 20.5988 24.4884 19.2234 22.7656 18.3264C24.0204 18.037 24.9655 17.2118 25.2175 15.507L25.2169 15.5066L25.2168 15.5067ZM20.8293 21.6592C20.2358 24.0438 16.2208 22.7547 14.9191 22.4315L15.9736 18.2042C17.2753 18.5291 21.4495 19.1722 20.8294 21.6592H20.8293ZM21.4232 15.4722C20.8818 17.6413 17.5401 16.5393 16.4561 16.2691L17.4121 12.4351C18.4961 12.7054 21.9871 13.2097 21.4234 15.4722H21.4232Z" fill="white"/>
</g>
<defs>
<clipPath id="clip0_62_2756">
<rect width="35" height="35" fill="white" transform="translate(0 0.5)"/>
</clipPath>
</defs>
</svg>
