<svg width="35" height="36" viewBox="0 0 35 36" fill="none" xmlns="http://www.w3.org/2000/svg">
<g clip-path="url(#clip0_62_2772)">
<mask id="mask0_62_2772" style="mask-type:alpha" maskUnits="userSpaceOnUse" x="0" y="0" width="35" height="36">
<path d="M3.05176e-05 0.500061H35V35.5H3.05176e-05V0.500061Z" fill="white"/>
</mask>
<g mask="url(#mask0_62_2772)">
<path fill-rule="evenodd" clip-rule="evenodd" d="M17.5 0.500061C27.1652 0.500061 35 8.33489 35 18.0001C35 27.6644 27.1652 35.5001 17.5 35.5001C7.83486 35.5001 3.05176e-05 27.6644 3.05176e-05 18.0001C3.05176e-05 8.33489 7.83486 0.500061 17.5 0.500061Z" fill="#2775CA"/>
</g>
<path fill-rule="evenodd" clip-rule="evenodd" d="M14.2195 30.1672C14.2195 30.5789 13.8972 30.8127 13.4991 30.6885C8.20789 29.0005 4.37161 24.0391 4.37161 18.1849C4.37161 12.331 8.20789 7.36931 13.4991 5.68135C13.8972 5.55786 14.2195 5.79093 14.2195 6.20258V7.21877C14.2195 7.4928 14.0072 7.81536 13.746 7.90465C9.55977 9.44186 6.5609 13.4635 6.5609 18.1779C6.5609 22.8924 9.55977 26.9148 13.746 28.4512C14.0072 28.5475 14.2195 28.8629 14.2195 29.1379V30.1672Z" fill="white"/>
<path fill-rule="evenodd" clip-rule="evenodd" d="M18.5911 26.3857C18.5911 26.688 18.3441 26.935 18.0422 26.935H16.9508C16.649 26.935 16.402 26.688 16.402 26.3857V24.6566C14.0136 24.3343 12.8473 22.9957 12.5315 21.1773C12.4764 20.8681 12.7234 20.5869 13.0392 20.5869H14.2883C14.549 20.5869 14.7687 20.7724 14.8236 21.0327C15.0571 22.1171 15.6815 22.9476 17.596 22.9476C19.0097 22.9476 20.0119 22.1583 20.0119 20.9784C20.0119 19.7976 19.4215 19.3517 17.349 19.0083C14.2883 18.5966 12.8403 17.6699 12.8403 15.2681C12.8403 13.4152 14.2405 11.9743 16.4089 11.6652V9.97013C16.4089 9.66806 16.6561 9.42087 16.9578 9.42087H18.0492C18.351 9.42087 18.598 9.66806 18.598 9.97013V11.7134C20.3618 12.0296 21.4804 13.0308 21.8443 14.6916C21.9127 15.0077 21.6657 15.3023 21.3433 15.3023H20.1901C19.9431 15.3023 19.7373 15.1374 19.6619 14.8974C19.3531 13.841 18.598 13.3882 17.2871 13.3882C15.8392 13.3882 15.0911 14.088 15.0911 15.0692C15.0911 16.1055 15.5168 16.6267 17.7405 16.9498C20.746 17.3615 22.2973 18.2192 22.2973 20.7796C22.2973 22.7215 20.8559 24.2931 18.598 24.6566V26.3857H18.5911Z" fill="white"/>
<path fill-rule="evenodd" clip-rule="evenodd" d="M21.501 30.6885C21.1033 30.8128 20.7805 30.5789 20.7805 30.1673V29.1519C20.7805 28.8498 20.9659 28.5686 21.254 28.4652C25.4403 26.928 28.4392 22.9064 28.4392 18.1919C28.4392 13.4775 25.4403 9.45584 21.254 7.91862C20.9933 7.82237 20.7805 7.50697 20.7805 7.23194V6.21655C20.7805 5.8049 21.1033 5.56487 21.501 5.69453C26.7922 7.38348 30.6284 12.3449 30.6284 18.1989C30.6219 24.0389 26.7922 28.9936 21.501 30.6885Z" fill="white"/>
</g>
<defs>
<clipPath id="clip0_62_2772">
<rect width="35" height="35" fill="white" transform="translate(0 0.5)"/>
</clipPath>
</defs>
</svg>
