<svg width="35" height="36" viewBox="0 0 35 36" fill="none" xmlns="http://www.w3.org/2000/svg">
<g clip-path="url(#clip0_62_894)">
<path d="M34.9687 17.9939C34.9687 27.6111 27.1729 35.4068 17.5557 35.4068C7.93891 35.4068 0.142792 27.6111 0.142792 17.9939C0.142792 8.37691 7.93891 0.580963 17.5557 0.580963C27.1729 0.580963 34.9687 8.37691 34.9687 17.9939Z" fill="#1BA27A"/>
<path d="M25.7281 9.3616H9.23984V13.3422H15.4937V19.1929H19.4743V13.3422H25.7281V9.3616Z" fill="white"/>
<path d="M17.5218 19.8162C12.3484 19.8162 8.15415 18.9974 8.15415 17.9873C8.15415 16.9773 12.3482 16.1584 17.5218 16.1584C22.6952 16.1584 26.8892 16.9773 26.8892 17.9873C26.8892 18.9974 22.6952 19.8162 17.5218 19.8162ZM28.0401 18.2922C28.0401 16.9897 23.3309 15.9339 17.5218 15.9339C11.7128 15.9339 7.00333 16.9897 7.00333 18.2922C7.00333 19.4392 10.655 20.3948 15.4939 20.6065V29.0055H19.4741V20.6098C24.3503 20.4047 28.0401 19.4451 28.0401 18.2922Z" fill="white"/>
</g>
<defs>
<clipPath id="clip0_62_894">
<rect width="35" height="35" fill="white" transform="translate(0 0.5)"/>
</clipPath>
</defs>
</svg>
