<svg width="24" height="24" viewBox="0 0 20 20" fill="none" xmlns="http://www.w3.org/2000/svg">
<rect width="20" height="20" fill="#121212"/>
<path d="M9.16685 4.16666V13.475L5.10018 9.40833C4.77518 9.08333 4.24185 9.08333 3.91685 9.40833C3.59185 9.73333 3.59185 10.2583 3.91685 10.5833L9.40851 16.075C9.73351 16.4 10.2585 16.4 10.5835 16.075L16.0752 10.5833C16.4002 10.2583 16.4002 9.73333 16.0752 9.40833C15.7502 9.08333 15.2252 9.08333 14.9002 9.40833L10.8335 13.475V4.16666C10.8335 3.70833 10.4585 3.33333 10.0002 3.33333C9.54185 3.33333 9.16685 3.70833 9.16685 4.16666Z" fill="#66BB6A"/>
<path d="M9.16685 4.16666V13.475L5.10018 9.40833C4.77518 9.08333 4.24185 9.08333 3.91685 9.40833C3.59185 9.73333 3.59185 10.2583 3.91685 10.5833L9.40851 16.075C9.73351 16.4 10.2585 16.4 10.5835 16.075L16.0752 10.5833C16.4002 10.2583 16.4002 9.73333 16.0752 9.40833C15.7502 9.08333 15.2252 9.08333 14.9002 9.40833L10.8335 13.475V4.16666C10.8335 3.70833 10.4585 3.33333 10.0002 3.33333C9.54185 3.33333 9.16685 3.70833 9.16685 4.16666Z" fill="white" fill-opacity="0.6"/>
</svg>
