<svg width="24" height="24" viewBox="0 0 35 36" fill="none" xmlns="http://www.w3.org/2000/svg">
<g clip-path="url(#clip0_62_874)">
<path d="M17.5524 0.689648V0.70689C17.5697 0.793097 17.5697 0.896545 17.5697 0.999993V13.431C17.5524 13.5 17.5007 13.5172 17.449 13.5517C17.0869 13.7241 16.7421 13.8793 16.38 14.0345C15.88 14.2586 15.3628 14.5 14.8628 14.7241L13.0524 15.5517C12.5524 15.7759 12.0524 16 11.5697 16.2241C10.9835 16.5 10.38 16.7586 9.7938 17.0345C9.2938 17.2586 8.7938 17.5 8.27656 17.7241C7.86277 17.9138 7.44897 18.0862 7.05242 18.2759C7.01794 18.2931 6.98346 18.3103 6.94897 18.3103C6.93173 18.3103 6.93173 18.3103 6.91449 18.2931L7.38001 17.5172C8.27656 16.0345 9.15587 14.569 10.0524 13.0862C11.0007 11.5 11.9662 9.91379 12.9145 8.32758C13.7938 6.86206 14.6904 5.39654 15.5697 3.93103C16.2076 2.86206 16.8628 1.7931 17.5007 0.724131C17.5179 0.689648 17.5352 0.672407 17.5352 0.637924H17.5524C17.5352 0.655166 17.5524 0.672407 17.5524 0.689648Z" fill="#8A92B2"/>
<path d="M28.1379 18.2931L28.1552 18.3103L25.6207 19.8103L17.6552 24.5172C17.6207 24.5345 17.5862 24.5517 17.569 24.569C17.5172 24.569 17.5172 24.5172 17.5172 24.5V24.3448V13.6896C17.5172 13.6379 17.5172 13.569 17.5345 13.5172C17.5517 13.4483 17.6034 13.4655 17.6552 13.4828C17.8793 13.5862 18.1207 13.6896 18.3448 13.7931C19.0172 14.1034 19.6897 14.4138 20.3621 14.7069C20.9483 14.9655 21.5172 15.2414 22.1034 15.5C22.6897 15.7586 23.2759 16.0345 23.8621 16.2931C24.3621 16.5172 24.8793 16.7586 25.3793 16.9828C25.8793 17.2069 26.3966 17.4483 26.8966 17.6724C27.2931 17.8448 27.6897 18.0345 28.0862 18.2069C28.0862 18.2586 28.1034 18.2759 28.1379 18.2931Z" fill="#454A75"/>
<path d="M17.5517 35.2759C17.5517 35.2931 17.5345 35.3103 17.5345 35.3276H17.5172C17.5172 35.2931 17.4828 35.2759 17.4655 35.2414C16.3965 33.7414 15.3276 32.2241 14.2586 30.7241C13.1724 29.1896 12.069 27.6379 10.9828 26.1034C9.93103 24.6207 8.86206 23.1207 7.81034 21.6379C7.53448 21.2414 7.25862 20.8621 6.98275 20.4655C6.96551 20.431 6.94827 20.4138 6.91379 20.3621C6.96551 20.3621 6.99999 20.3965 7.01724 20.4138C8.51724 21.2931 9.99999 22.1724 11.5 23.0517C13.2241 24.069 14.931 25.0862 16.6552 26.1034L17.5345 26.6207C17.569 26.6552 17.569 26.6896 17.569 26.7241V35.0345C17.569 35.1207 17.569 35.2069 17.5517 35.2759Z" fill="#8A92B2"/>
<path d="M6.89655 18.3276V18.3103C7.44827 18.069 7.98275 17.8103 8.53448 17.569C9.24137 17.2414 9.94827 16.931 10.6552 16.6034C11.1896 16.3621 11.7414 16.1034 12.2759 15.8621C13.069 15.5 13.8448 15.1552 14.6379 14.7931C15.1724 14.5517 15.7069 14.3103 16.2586 14.0517C16.6379 13.8793 17.0345 13.7069 17.4138 13.5345C17.4483 13.5172 17.5 13.5 17.5172 13.4655C17.5345 13.4655 17.5345 13.4828 17.5172 13.5V24.4483C17.5172 24.5 17.5 24.5517 17.5345 24.5862C17.5 24.6379 17.4655 24.5862 17.4483 24.569C17.2931 24.4828 17.1379 24.3965 16.9828 24.2931C13.6552 22.3276 10.3103 20.3448 6.98275 18.3793C6.96551 18.3621 6.93103 18.3448 6.89655 18.3276Z" fill="#62688F"/>
<path d="M28.1034 20.3621H28.1207C28.1207 20.3965 28.0862 20.431 28.069 20.4655C24.8966 24.931 21.7241 29.4138 18.5517 33.8793C18.2241 34.3448 17.8793 34.8103 17.5517 35.2759C17.5345 35.2586 17.5345 35.2414 17.5345 35.2241V35.1207V26.7586V26.6034C18.2586 26.1724 18.9655 25.7586 19.6897 25.3276C22.4828 23.6724 25.2759 22.0345 28.0517 20.3793C28.069 20.3965 28.0862 20.3793 28.1034 20.3621Z" fill="#62688F"/>
<path d="M17.5345 13.5V13.4655V13.3621V0.844825C17.5345 0.793101 17.5172 0.758618 17.5517 0.706894C21.0517 6.51724 24.5517 12.3103 28.0345 18.1207C28.069 18.1724 28.1207 18.2414 28.1379 18.3103C27.8966 18.2241 27.6724 18.1034 27.4483 18C27.1724 17.8793 26.8793 17.7414 26.6034 17.6207C26.431 17.5345 26.2414 17.4655 26.069 17.3793C25.7759 17.2414 25.4828 17.1207 25.1897 16.9828C25.0172 16.9138 24.8448 16.8276 24.6724 16.7414L23.5345 16.2241C23.3448 16.1379 23.1552 16.0517 22.9483 15.9655L22.1207 15.6034C21.9483 15.5345 21.7759 15.4483 21.6034 15.3621L20.4655 14.8448C20.2759 14.7586 20.0862 14.6724 19.8793 14.5862L19.0517 14.2241C18.8621 14.1379 18.6897 14.0517 18.5 13.9655C18.1724 13.8103 17.8448 13.6552 17.5 13.5172C17.5517 13.5 17.5345 13.5 17.5345 13.5Z" fill="#62688F"/>
</g>
<defs>
<clipPath id="clip0_62_874">
<rect width="35" height="35" fill="white" transform="translate(0 0.5)"/>
</clipPath>
</defs>
</svg>
