<svg width="135" height="20" viewBox="0 0 135 20" fill="none" xmlns="http://www.w3.org/2000/svg">
<g clip-path="url(#clip0_62_2513)">
<path d="M9.92522 5.60183V19.3038H5.65607V5.60183H0V1.83865H15.5767V5.59279L9.92522 5.60183Z" fill="white"/>
<path d="M26.7036 6.14847L26.5229 10.3182H25.764C22.8456 10.3182 21.2464 11.8271 21.2464 15.2153V19.2812H17.0901V6.22527H21.2599V8.72803C22.195 7.16493 23.6317 6.04456 25.7775 6.04456C26.0894 6.03909 26.4007 6.07401 26.7036 6.14847Z" fill="white"/>
<path d="M42.1539 19.3038H37.9842V18.2602C36.8594 19.2357 35.4061 19.7476 33.9183 19.6923C30.4578 19.6923 27.5394 16.9049 27.5394 12.7668C27.5394 8.62864 30.4578 5.83675 33.9183 5.83675C35.4061 5.78149 36.8594 6.29336 37.9842 7.26884V6.22527H42.1539V19.3038ZM37.9842 12.7668C38.0011 12.3328 37.9311 11.8999 37.7785 11.4933C37.6258 11.0867 37.3935 10.7147 37.0952 10.3991C36.7968 10.0835 36.4385 9.83068 36.0411 9.65544C35.6437 9.48019 35.2154 9.38606 34.7812 9.37857C32.9741 9.37857 31.6188 10.761 31.6188 12.7668C31.6188 14.7726 32.947 16.1505 34.7812 16.1505C35.2157 16.1454 35.6449 16.0531 36.0431 15.879C36.4413 15.7049 36.8004 15.4525 37.0992 15.1369C37.398 14.8213 37.6302 14.4488 37.7823 14.0417C37.9343 13.6345 38.003 13.201 37.9842 12.7668Z" fill="white"/>
<path d="M58.9278 19.3038H54.7626V18.2602C53.6378 19.2357 52.1846 19.7476 50.6968 19.6923C47.2317 19.6923 44.3134 16.9049 44.3134 12.7668C44.3134 8.62865 47.2317 5.83677 50.6968 5.83677C52.1846 5.7815 53.6378 6.29338 54.7626 7.26885V0.546631H58.9278V19.3038ZM54.7626 12.7668C54.7789 12.3326 54.7084 11.8995 54.5552 11.4929C54.4021 11.0863 54.1693 10.7144 53.8706 10.3989C53.5719 10.0833 53.2133 9.83058 52.8157 9.65539C52.4181 9.48019 51.9895 9.38608 51.5551 9.37858C49.748 9.37858 48.3928 10.761 48.3928 12.7668C48.3928 14.7726 49.7209 16.1505 51.5551 16.1505C51.9899 16.1454 52.4192 16.0531 52.8176 15.8791C53.216 15.705 53.5755 15.4527 53.8746 15.1371C54.1737 14.8216 54.4065 14.4492 54.559 14.042C54.7115 13.6349 54.7808 13.2012 54.7626 12.7668Z" fill="white"/>
<path d="M74.7711 13.8329H65.1802C65.5191 15.396 66.5897 16.3583 67.9947 16.3583C68.5556 16.4043 69.1178 16.2862 69.6127 16.0183C70.1077 15.7504 70.514 15.3442 70.7821 14.8494L74.482 15.6039C73.3616 18.3641 70.9899 19.6923 67.9947 19.6923C66.188 19.6428 64.4721 18.8893 63.213 17.5927C61.9538 16.296 61.2511 14.5587 61.2547 12.7513C61.2582 10.9439 61.9677 9.2094 63.2319 7.91767C64.4961 6.62595 66.2149 5.87923 68.0218 5.83676C71.7217 5.83676 74.6898 8.49312 74.7711 12.7668V13.8329ZM65.2841 11.2805H70.6737C70.5451 10.684 70.2118 10.1514 69.7315 9.77508C69.2512 9.39877 68.6543 9.20254 68.0444 9.22045C67.4193 9.21307 66.8089 9.41042 66.3064 9.78237C65.804 10.1543 65.437 10.6805 65.2616 11.2805H65.2841Z" fill="white"/>
<path d="M94.5944 19.3038H89.9819L87.0681 8.52021L84.1226 19.3038H79.5372L74.5678 1.84769H78.968L82.0174 12.8436L85.008 1.83865H89.0965L92.0916 12.8345L95.1546 1.83865H99.5819L94.5944 19.3038Z" fill="white"/>
<path d="M105.952 2.37172C105.952 3.01033 105.698 3.6228 105.246 4.07436C104.795 4.52593 104.182 4.77961 103.544 4.77961C102.905 4.77961 102.293 4.52593 101.841 4.07436C101.39 3.6228 101.136 3.01033 101.136 2.37172C101.136 1.73311 101.39 1.12065 101.841 0.669087C102.293 0.21752 102.905 -0.0361633 103.544 -0.0361633C104.182 -0.0361633 104.795 0.21752 105.246 0.669087C105.698 1.12065 105.952 1.73311 105.952 2.37172ZM101.434 19.3038V6.22526H105.599V19.3038H101.434Z" fill="white"/>
<path d="M112.023 15.0572C112.204 16.1776 113.221 16.5932 114.341 16.5932C115.461 16.5932 116.035 16.1414 116.035 15.5542C116.035 15.1024 115.696 14.7726 114.734 14.5874L112.078 14.0679C109.652 13.6161 108.274 12.3241 108.274 10.264C108.274 7.58056 110.591 5.83676 113.898 5.83676C117.205 5.83676 119.319 7.31853 119.839 9.58638L116.035 10.3408C115.904 9.53669 115.131 8.80483 113.848 8.80483C112.728 8.80483 112.362 9.35147 112.362 9.8213C112.362 10.1872 112.52 10.5486 113.352 10.7248L116.428 11.3483C118.899 11.8678 120.042 13.3541 120.042 15.2831C120.042 18.1744 117.539 19.6833 114.101 19.6833C111.029 19.6833 108.4 18.5629 107.958 15.8839L112.023 15.0572Z" fill="white"/>
<path d="M135 13.8329H125.423C125.761 15.396 126.832 16.3583 128.237 16.3583C128.798 16.4032 129.36 16.2846 129.854 16.0168C130.349 15.749 130.756 15.3435 131.025 14.8494L134.724 15.6039C133.604 18.3641 131.232 19.6923 128.237 19.6923C126.43 19.6428 124.715 18.8893 123.455 17.5927C122.196 16.296 121.494 14.5587 121.497 12.7513C121.501 10.9439 122.21 9.2094 123.474 7.91767C124.739 6.62595 126.457 5.87923 128.264 5.83676C131.964 5.83676 134.932 8.49312 135.009 12.7668L135 13.8329ZM125.49 11.2805H130.884C130.756 10.684 130.423 10.1514 129.942 9.77508C129.462 9.39877 128.865 9.20254 128.255 9.22045C127.634 9.2185 127.028 9.41823 126.529 9.78967C126.031 10.1611 125.666 10.6842 125.49 11.2805Z" fill="white"/>
</g>
<defs>
<clipPath id="clip0_62_2513">
<rect width="135" height="19.6923" fill="white"/>
</clipPath>
</defs>
</svg>
